<?xml version="1.0" encoding="UTF-8"?>
<svg width="28px" height="26px" viewBox="0 0 28 26" version="1.1" xmlns="http://www.w3.org/2000/svg" xmlns:xlink="http://www.w3.org/1999/xlink">
    <!-- Generator: Sketch 51.1 (57501) - http://www.bohemiancoding.com/sketch -->
    <title>Combined Shape</title>
    <desc>Created with Sketch.</desc>
    <defs></defs>
    <g id="Page-1" stroke="none" stroke-width="1" fill="none" fill-rule="evenodd">
        <g id="Artboard" transform="translate(-1060.000000, -2091.000000)" fill="#FFFFFF" fill-rule="nonzero">
            <g id="Group-5-Copy-2" transform="translate(977.000000, 2043.000000)">
                <g id="Group-4" transform="translate(83.000000, 48.000000)">
                    <g id="Group-14">
                        <path d="M15.8888889,12 L25.8895241,12 C26.9108376,12 27.7387758,12.7659025 27.7387758,13.7106912 C27.7387758,14.6554799 26.9108376,15.4213824 25.8895241,15.4213824 L15.8888889,15.4213824 L15.8888889,24.0555556 C15.8888889,25.1294426 15.0183315,26 13.9444444,26 C12.8705574,26 12,25.1294426 12,24.0555556 L12,15.4213824 L1.84925172,15.4213824 C0.827938197,15.4213824 0,14.6554799 0,13.7106912 C0,12.7659025 0.827938197,12 1.84925172,12 L12,12 L12,1.94444444 C12,0.870557431 12.8705574,1.97269844e-16 13.9444444,0 C15.0183315,-1.97269844e-16 15.8888889,0.870557431 15.8888889,1.94444444 L15.8888889,12 Z" id="Combined-Shape"></path>
                    </g>
                </g>
            </g>
        </g>
    </g>
</svg>